<svg xmlns="http://www.w3.org/2000/svg" version="1.1" viewBox="0.8134190440177917 6.934374809265137 99.83916121721268 90.99265003204346" width="395" height="360" style="">
 <path d="m79.168 16.668h-8.332l-0.003907-4.168c0-2.3008-1.8633-4.168-4.168-4.168-2.3047 0-4.168 1.8672-4.168 4.168v4.168h-24.996v-4.168c0-2.3008-1.8672-4.168-4.168-4.168s-4.1641 1.8672-4.1641 4.168v4.168h-8.3359c-6.8906 0-12.5 5.6055-12.5 12.5v50c0 6.8945 5.6055 12.5 12.5 12.5h58.332c6.8945 0 12.5-5.6055 12.5-12.5l0.003907-50c0-6.8945-5.6094-12.5-12.5-12.5zm-45.918 50.832c-0.042969 0.25-0.125 0.5-0.25 0.75-0.082031 0.25-0.21094 0.5-0.375 0.75-0.16797 0.20703-0.33203 0.41406-0.5 0.625-0.41797 0.375-0.875 0.66406-1.375 0.875-0.5 0.20703-1.043 0.33203-1.582 0.33203-1.0859 0-2.168-0.46094-2.957-1.207-0.75391-0.79297-1.2109-1.832-1.2109-2.957 0-0.54297 0.125-1.0859 0.33203-1.5859 0.21094-0.54297 0.5-0.95703 0.875-1.375 1.582-1.543 4.332-1.543 5.918 0 0.75 0.79297 1.207 1.875 1.207 2.9609 0 0.25-0.042969 0.53906-0.082031 0.83203zm-1.125-14.543c-0.41797 0.375-0.875 0.66797-1.375 0.875s-1.043 0.33594-1.582 0.33594c-1.0859 0-2.168-0.46094-2.957-1.207-0.75391-0.79297-1.2109-1.8359-1.2109-2.9609 0-0.54297 0.125-1.0859 0.33203-1.5859 0.21094-0.54297 0.5-1 0.875-1.375 1.582-1.543 4.332-1.543 5.918 0 0.75 0.79297 1.207 1.875 1.207 2.9609 0 1.082-0.45703 2.168-1.207 2.957zm13.625 14.543c-0.042969 0.25-0.125 0.5-0.25 0.75-0.082031 0.25-0.21094 0.5-0.375 0.75-0.125 0.20703-0.33203 0.41406-0.5 0.625-0.41797 0.375-0.83594 0.66406-1.375 0.875-0.5 0.25-1.043 0.33203-1.582 0.33203-0.25 0-0.54297-0.042969-0.83594-0.082031-0.25-0.042969-0.5-0.125-0.75-0.25-0.25-0.082031-0.5-0.21094-0.75-0.375-0.20703-0.125-0.41406-0.33203-0.625-0.5-0.75-0.79297-1.207-1.832-1.207-2.957 0-0.54297 0.125-1.0859 0.33203-1.5859 0.21094-0.54297 0.5-0.95703 0.875-1.375 0.21094-0.16406 0.41797-0.375 0.625-0.5 0.25-0.16406 0.5-0.29297 0.75-0.375 0.25-0.125 0.5-0.20703 0.75-0.25 1.375-0.25 2.793 0.16797 3.793 1.125 0.75 0.79297 1.207 1.875 1.207 2.9609 0 0.25-0.042969 0.53906-0.082031 0.83203zm-1.125-14.543c-0.79297 0.75-1.875 1.2109-2.957 1.2109-0.25 0-0.54297-0.042969-0.83594-0.082031-0.25-0.042969-0.5-0.125-0.75-0.25-0.25-0.085938-0.5-0.21094-0.75-0.37891-0.20703-0.16406-0.41406-0.33203-0.625-0.5-0.375-0.41406-0.66406-0.875-0.875-1.375-0.20703-0.5-0.33203-1.0391-0.33203-1.582s0.125-1.0859 0.33203-1.5859c0.21094-0.54297 0.5-0.95703 0.875-1.375 0.21094-0.16406 0.41797-0.33203 0.625-0.49609 0.25-0.16797 0.5-0.29297 0.75-0.37891 0.25-0.125 0.5-0.20703 0.75-0.25 1.375-0.25 2.793 0.16797 3.793 1.125 0.75 0.79297 1.207 1.875 1.207 2.9609 0 1.082-0.45703 2.168-1.207 2.957zm13.375 15.293c-0.20703 0.5-0.5 0.95703-0.875 1.375-0.79297 0.75-1.875 1.207-2.957 1.207-0.25 0-0.54297-0.042969-0.79297-0.082031-0.29297-0.042969-0.54297-0.125-0.79297-0.25-0.25-0.082031-0.5-0.21094-0.75-0.375-0.21094-0.16406-0.41797-0.33203-0.625-0.5-0.375-0.41797-0.66406-0.875-0.875-1.375-0.20703-0.5-0.33203-1.043-0.33203-1.582 0-0.54297 0.125-1.0859 0.33203-1.5859 0.21094-0.54297 0.5-1 0.875-1.375 0.20703-0.16797 0.41406-0.375 0.625-0.5 0.25-0.16797 0.5-0.29297 0.75-0.375 0.25-0.125 0.5-0.20703 0.79297-0.25 1.332-0.25 2.7891 0.16797 3.75 1.125 0.375 0.41406 0.66797 0.83203 0.875 1.375 0.20703 0.5 0.33203 1.043 0.33203 1.5859 0 0.53906-0.125 1.082-0.33203 1.582zm12.5 0c-0.20703 0.5-0.5 0.95703-0.875 1.375-0.20703 0.16797-0.41797 0.33203-0.625 0.5-0.25 0.16797-0.5 0.29297-0.75 0.375-0.25391 0.125-0.5 0.20703-0.79297 0.25-0.25 0.039062-0.54297 0.082031-0.78906 0.082031-0.25391 0-0.54297-0.042969-0.83594-0.082031-0.25-0.042969-0.5-0.125-0.75-0.25-0.25391-0.082031-0.5-0.21094-0.75391-0.375-0.20703-0.16406-0.41406-0.33203-0.62109-0.5-0.37109-0.41797-0.66406-0.875-0.875-1.375-0.20703-0.5-0.33203-1.043-0.33203-1.582 0-1.125 0.45703-2.168 1.207-2.957 0.95703-0.95703 2.418-1.375 3.7461-1.125 0.29297 0.039062 0.54297 0.125 0.79297 0.25 0.25 0.082031 0.5 0.21094 0.75 0.375 0.20703 0.16797 0.41797 0.33203 0.625 0.5 0.75391 0.78906 1.2109 1.832 1.2109 2.957 0 0.53906-0.125 1.082-0.33203 1.582z" fill="#413c58"/>
<text x="0.0" y="117.5" font-size="5.0" font-weight="bold" font-family="Arbeit Regular, Helvetica, Arial-Unicode, Arial, Sans-serif" fill="#413c58">Created by YOSHA</text><text x="0.0" y="122.5" font-size="5.0" font-weight="bold" font-family="Arbeit Regular, Helvetica, Arial-Unicode, Arial, Sans-serif" fill="#413c58">from Noun Project</text></svg>